<svg xmlns="http://www.w3.org/2000/svg" width="14.664" height="14.664" viewBox="0 0 14.664 14.664">
  <path id="Icon_awesome-check-circle" data-name="Icon awesome-check-circle" d="M15.227,7.895A7.332,7.332,0,1,1,7.895.563,7.332,7.332,0,0,1,15.227,7.895Zm-8.18,3.882,5.44-5.44a.473.473,0,0,0,0-.669L11.817,5a.473.473,0,0,0-.669,0L6.712,9.435,4.641,7.364a.473.473,0,0,0-.669,0L3.3,8.033a.473.473,0,0,0,0,.669l3.075,3.075a.473.473,0,0,0,.669,0Z" transform="translate(-0.563 -0.563)" fill="#00b0f0"/>
</svg>
